#Comment line ignore any data following # character 
#Hierarchical Translation and Rotation (.htr) file 
[Header]	
#Header keywords are followed by a single value 
FileType HTR		#Single word string
DataType HTRS		#Translation followed by rotation and scale data
FileVersion 1		#integer
NumSegments 64		#integer
NumFrames 3		#integer
DataFrameRate 30		#integer, data frame rate in this file
EulerRotationOrder ZYX
CalibrationUnits mm
RotationUnits Degrees
GlobalAxisofGravity Y
BoneLengthAxis Y
ScaleFactor 1.00
[SegmentNames&Hierarchy]
#CHILD	PARENT
Pinger_Root GLOBAL
Pelvis Pinger_Root
L_Hip Pelvis
R_Hip Pelvis
Rear_Leg01 Pelvis
Spine1 Pelvis
L_Leg01 L_Hip
L_Leg02 L_Leg01
L_Leg03 L_Leg02
L_Foot L_Leg03
L_Toe1_01 L_Foot
L_Toe2_01 L_Foot
L_Toe3_01 L_Foot
planeAlignerLeft L_Foot
L_Toe1_02 L_Toe1_01
L_Toe1_03 L_Toe1_02
L_Toe2_02 L_Toe2_01
L_Toe2_03 L_Toe2_02
L_Toe3_02 L_Toe3_01
L_Toe3_03 L_Toe3_02
planeLockWeightLeft planeAlignerLeft
R_Leg01 R_Hip
R_Leg02 R_Leg01
R_Leg03 R_Leg02
R_Foot R_Leg03
planeAlignerRight R_Foot
R_Toe1_01 R_Foot
R_Toe2_01 R_Foot
R_Toe3_01 R_Foot
planeLockWeightRight planeAlignerRight
R_Toe1_02 R_Toe1_01
R_Toe1_03 R_Toe1_02
R_Toe2_02 R_Toe2_01
R_Toe2_03 R_Toe2_02
R_Toe3_02 R_Toe3_01
R_Toe3_03 R_Toe3_02
Rear_Leg02 Rear_Leg01
Rear_Leg03 Rear_Leg02
Rear_Leg04 Rear_Leg03
Rear_Foot Rear_Leg04
planeAlignerCenter Rear_Foot
Rear_Toe1_01 Rear_Foot
Rear_Toe2_01 Rear_Foot
Rear_Toe3_01 Rear_Foot
planeLockWeightCenter planeAlignerCenter
Rear_Toe1_02 Rear_Toe1_01
Rear_Toe1_03 Rear_Toe1_02
Rear_Toe2_02 Rear_Toe2_01
Rear_Toe2_03 Rear_Toe2_02
Rear_Toe3_02 Rear_Toe3_01
Rear_Toe3_03 Rear_Toe3_02
Back_Bone Spine1
Head Spine1
Motor_Bone Back_Bone
Ping_Mechanism Back_Bone
BN_LookIK Head
bottomMouth Head
L_Mouth01 Head
L_mouthFront Head
mouthGun Head
R_Mouth01 Head
R_mouthFront Head
TopMouth Head
weapon_bone Head
[BasePosition]
#SegmentName Tx, Ty, Tz, Rx, Ry, Rz, BoneLength
Pinger_Root 0.000000 0.000000 0.000000 -90.000000 0.000000 0.000000 10.000000 
Pelvis 0.000000 0.000000 0.000000 0.000000 0.000000 0.000000 10.000000 
L_Hip 0.000000 0.000000 0.000000 0.000000 0.000000 0.000000 10.000000 
R_Hip 0.000000 0.000000 0.000000 0.000000 0.000000 0.000000 10.000000 
Rear_Leg01 0.000000 0.000000 0.000000 0.000000 0.000000 0.000000 10.000000 
Spine1 0.000000 0.000000 0.000000 0.000000 0.000000 0.000000 10.000000 
L_Leg01 0.000000 0.000000 0.000000 0.000000 0.000000 0.000000 10.000000 
L_Leg02 0.000000 0.000000 0.000000 0.000000 0.000000 0.000000 10.000000 
L_Leg03 0.000000 0.000000 0.000000 0.000000 0.000000 0.000000 10.000000 
L_Foot 0.000000 0.000000 0.000000 0.000000 0.000000 0.000000 10.000000 
L_Toe1_01 0.000000 0.000000 0.000000 0.000000 0.000000 0.000000 10.000000 
L_Toe2_01 0.000000 0.000000 0.000000 0.000000 0.000000 0.000000 10.000000 
L_Toe3_01 0.000000 0.000000 0.000000 0.000000 0.000000 0.000000 10.000000 
planeAlignerLeft 0.000000 0.000000 0.000000 0.000000 0.000000 0.000000 10.000000 
L_Toe1_02 0.000000 0.000000 0.000000 0.000000 0.000000 0.000000 10.000000 
L_Toe1_03 0.000000 0.000000 0.000000 0.000000 0.000000 0.000000 10.000000 
L_Toe2_02 0.000000 0.000000 0.000000 0.000000 0.000000 0.000000 10.000000 
L_Toe2_03 0.000000 0.000000 0.000000 0.000000 0.000000 0.000000 10.000000 
L_Toe3_02 0.000000 0.000000 0.000000 0.000000 0.000000 0.000000 10.000000 
L_Toe3_03 0.000000 0.000000 0.000000 0.000000 0.000000 0.000000 10.000000 
planeLockWeightLeft 0.000000 0.000000 0.000000 0.000000 0.000000 0.000000 10.000000 
R_Leg01 0.000000 0.000000 0.000000 0.000000 0.000000 0.000000 10.000000 
R_Leg02 0.000000 0.000000 0.000000 0.000000 0.000000 0.000000 10.000000 
R_Leg03 0.000000 0.000000 0.000000 0.000000 0.000000 0.000000 10.000000 
R_Foot 0.000000 0.000000 0.000000 0.000000 0.000000 0.000000 10.000000 
planeAlignerRight 0.000000 0.000000 0.000000 0.000000 0.000000 0.000000 10.000000 
R_Toe1_01 0.000000 0.000000 0.000000 0.000000 0.000000 0.000000 10.000000 
R_Toe2_01 0.000000 0.000000 0.000000 0.000000 0.000000 0.000000 10.000000 
R_Toe3_01 0.000000 0.000000 0.000000 0.000000 0.000000 0.000000 10.000000 
planeLockWeightRight 0.000000 0.000000 0.000000 0.000000 0.000000 0.000000 10.000000 
R_Toe1_02 0.000000 0.000000 0.000000 0.000000 0.000000 0.000000 10.000000 
R_Toe1_03 0.000000 0.000000 0.000000 0.000000 0.000000 0.000000 10.000000 
R_Toe2_02 0.000000 0.000000 0.000000 0.000000 0.000000 0.000000 10.000000 
R_Toe2_03 0.000000 0.000000 0.000000 0.000000 0.000000 0.000000 10.000000 
R_Toe3_02 0.000000 0.000000 0.000000 0.000000 0.000000 0.000000 10.000000 
R_Toe3_03 0.000000 0.000000 0.000000 0.000000 0.000000 0.000000 10.000000 
Rear_Leg02 0.000000 0.000000 0.000000 0.000000 0.000000 0.000000 10.000000 
Rear_Leg03 0.000000 0.000000 0.000000 0.000000 0.000000 0.000000 10.000000 
Rear_Leg04 0.000000 0.000000 0.000000 0.000000 0.000000 0.000000 10.000000 
Rear_Foot 0.000000 0.000000 0.000000 0.000000 0.000000 0.000000 10.000000 
planeAlignerCenter 0.000000 0.000000 0.000000 0.000000 0.000000 0.000000 10.000000 
Rear_Toe1_01 0.000000 0.000000 0.000000 0.000000 0.000000 0.000000 10.000000 
Rear_Toe2_01 0.000000 0.000000 0.000000 0.000000 0.000000 0.000000 10.000000 
Rear_Toe3_01 0.000000 0.000000 0.000000 0.000000 0.000000 0.000000 10.000000 
planeLockWeightCenter 0.000000 0.000000 0.000000 0.000000 0.000000 0.000000 10.000000 
Rear_Toe1_02 0.000000 0.000000 0.000000 0.000000 0.000000 0.000000 10.000000 
Rear_Toe1_03 0.000000 0.000000 0.000000 0.000000 0.000000 0.000000 10.000000 
Rear_Toe2_02 0.000000 0.000000 0.000000 0.000000 0.000000 0.000000 10.000000 
Rear_Toe2_03 0.000000 0.000000 0.000000 0.000000 0.000000 0.000000 10.000000 
Rear_Toe3_02 0.000000 0.000000 0.000000 0.000000 0.000000 0.000000 10.000000 
Rear_Toe3_03 0.000000 0.000000 0.000000 0.000000 0.000000 0.000000 10.000000 
Back_Bone 0.000000 0.000000 0.000000 0.000000 0.000000 0.000000 10.000000 
Head 0.000000 0.000000 0.000000 0.000000 0.000000 0.000000 10.000000 
Motor_Bone 0.000000 0.000000 0.000000 0.000000 0.000000 0.000000 10.000000 
Ping_Mechanism 0.000000 0.000000 0.000000 0.000000 0.000000 0.000000 10.000000 
BN_LookIK 0.000000 0.000000 0.000000 0.000000 0.000000 0.000000 10.000000 
bottomMouth 0.000000 0.000000 0.000000 0.000000 0.000000 0.000000 10.000000 
L_Mouth01 0.000000 0.000000 0.000000 0.000000 0.000000 0.000000 10.000000 
L_mouthFront 0.000000 0.000000 0.000000 0.000000 0.000000 0.000000 10.000000 
mouthGun 0.000000 0.000000 0.000000 0.000000 0.000000 0.000000 10.000000 
R_Mouth01 0.000000 0.000000 0.000000 0.000000 0.000000 0.000000 10.000000 
R_mouthFront 0.000000 0.000000 0.000000 0.000000 0.000000 0.000000 10.000000 
TopMouth 0.000000 0.000000 0.000000 0.000000 0.000000 0.000000 10.000000 
weapon_bone 0.000000 0.000000 0.000000 0.000000 0.000000 0.000000 10.000000 
#Beginning of Data. Separated by tabs
#Fr	Tx	Ty	Tz	Rx	Ry	Rz	SF
[Pinger_Root]
439 0.000000 -4913.028809 0.000000 -0.000075 -0.000000 -0.000020 4913.028809
440 0.000000 -4924.283691 0.000000 -0.000075 -0.000000 -0.000020 4924.283691
441 0.000000 -4935.538574 0.000000 -0.000075 -0.000000 -0.000020 4935.538574
[Pelvis]
439 1443.178223 20148.988281 7058.946777 -173.256775 -86.780159 160.375153 21398.439453
440 1443.123779 20160.154297 7058.916016 -173.225342 -86.781860 160.343475 21408.941406
441 1443.069458 20171.320313 7058.885742 -173.193909 -86.784111 160.311905 21419.441406
[L_Hip]
439 5.766392 125.831482 872.656799 160.158691 -45.484905 122.312202 881.701050
440 5.766392 125.831482 872.656799 160.158691 -45.484894 122.312202 881.701050
441 5.766392 125.831482 872.656799 160.158691 -45.484905 122.312202 881.701050
[R_Hip]
439 5.765438 125.836372 -872.654907 38.087841 49.812687 125.703735 881.699829
440 5.765438 125.836372 -872.654907 38.087841 49.812687 125.703735 881.699829
441 5.765438 125.836372 -872.654907 38.087841 49.812687 125.703735 881.699829
[Rear_Leg01]
439 -192.298416 -925.602966 -0.001907 169.687088 1.954447 -159.828522 945.367432
440 -192.298416 -925.602966 -0.001907 169.690201 1.961193 -159.837753 945.367432
441 -192.298416 -925.602966 -0.001907 169.693314 1.967940 -159.847000 945.367432
[Spine1]
439 290.604584 5.007505 0.000477 7.256294 -0.598177 19.179586 290.647736
440 290.604584 5.007505 0.000477 7.256183 -0.597149 19.180424 290.647736
441 290.604584 5.007505 0.000477 7.256070 -0.596120 19.181257 290.647736
[L_Leg01]
439 761.932007 -0.002384 -0.069261 23.007238 -15.393402 -9.537026 761.932068
440 761.932007 -0.002384 -0.069261 23.000406 -15.401612 -9.524194 761.932068
441 761.932007 -0.002384 -0.069261 22.993574 -15.409825 -9.511358 761.932068
[L_Leg02]
439 1441.140503 -0.000954 -0.000715 2.530709 -0.179961 -128.169342 1441.140503
440 1441.140503 -0.000954 -0.000715 2.530808 -0.180057 -128.176544 1441.140503
441 1441.140503 -0.000954 -0.000715 2.530907 -0.180152 -128.183731 1441.140503
[L_Leg03]
439 1686.963989 -0.000715 -0.000954 -0.029936 0.014736 118.204033 1686.963989
440 1686.963989 -0.000715 -0.000954 -0.029937 0.014735 118.199387 1686.963989
441 1686.963989 -0.000715 -0.000954 -0.029937 0.014734 118.194748 1686.963989
[L_Foot]
439 3041.570068 -30.715107 11.297464 1.673491 13.114639 55.173683 3041.746094
440 3041.570068 -30.715107 11.297464 1.677620 13.114077 55.178577 3041.746094
441 3041.570068 -30.715107 11.297464 1.681749 13.113510 55.183464 3041.746094
[L_Toe1_01]
439 -188.216690 -224.732346 -21.137953 93.708939 -7.376454 -172.077026 293.899567
440 -188.216690 -224.732346 -21.137953 93.709175 -7.367936 -172.075302 293.899567
441 -188.216690 -224.732346 -21.137953 93.709396 -7.359418 -172.073593 293.899567
[L_Toe2_01]
439 200.746536 -219.926590 148.838394 -89.976891 -27.081982 -52.268387 332.896027
440 200.746536 -219.926590 148.838394 -89.977928 -27.067549 -52.275948 332.896027
441 200.746536 -219.926590 148.838394 -89.978996 -27.053118 -52.283516 332.896027
[L_Toe3_01]
439 188.832520 -219.859131 -191.078659 -99.464935 13.531404 -66.795815 347.140900
440 188.832520 -219.859131 -191.078659 -99.471077 13.537301 -66.812469 347.140900
441 188.832520 -219.859131 -191.078659 -99.477234 13.543184 -66.829109 347.140900
[planeAlignerLeft]
439 0.812531 -811.448792 -0.314951 0.000000 -90.000000 -90.001900 811.449280
440 0.812531 -811.448792 -0.314951 0.000000 -90.000000 -90.001900 811.449280
441 0.812531 -811.448792 -0.314951 0.000000 -90.000000 -90.001900 811.449280
[L_Toe1_02]
439 413.761139 0.000477 0.000000 0.001384 -25.942162 0.001384 413.761139
440 413.761139 0.000477 0.000000 0.001384 -25.942123 0.001384 413.761139
441 413.761139 0.000477 0.000000 0.001384 -25.942074 0.001384 413.761139
[L_Toe1_03]
439 464.317322 0.000358 -0.000089 0.003621 52.173748 0.003621 464.317322
440 464.317322 0.000358 -0.000089 0.003623 52.198799 0.003623 464.317322
441 464.317322 0.000358 -0.000089 0.003625 52.223839 0.003625 464.317322
[L_Toe2_02]
439 342.235809 -0.000477 0.000238 0.001187 -72.702599 0.001187 342.235809
440 342.235809 -0.000477 0.000238 0.001187 -72.698486 0.001187 342.235809
441 342.235809 -0.000477 0.000238 0.001187 -72.694466 0.001187 342.235809
[L_Toe2_03]
439 420.210846 -0.000715 0.000000 0.006914 86.136490 0.008735 420.210846
440 420.210846 -0.000715 0.000000 0.007432 86.123032 0.009217 420.210846
441 420.210846 -0.000715 0.000000 0.007946 86.109467 0.009696 420.210846
[L_Toe3_02]
439 329.270111 0.000954 0.000000 0.001177 -81.018738 0.001177 329.270111
440 329.270111 0.000954 0.000000 0.001177 -81.009995 0.001177 329.270111
441 329.270111 0.000954 0.000000 0.001177 -81.001167 0.001177 329.270111
[L_Toe3_03]
439 439.137451 -0.001907 0.000954 -179.996902 76.402855 -179.993378 439.137451
440 439.137451 -0.001907 0.000954 -179.996887 76.448982 -179.993362 439.137451
441 439.137451 -0.001907 0.000954 -179.996872 76.495056 -179.993347 439.137451
[planeLockWeightLeft]
439 -0.000954 0.000238 -0.000305 -0.011826 -0.004376 0.005620 0.001029
440 -0.000954 0.000238 -0.000305 -0.011826 -0.004376 0.005620 0.001029
441 -0.000954 0.000238 -0.000305 -0.011826 -0.004376 0.005620 0.001029
[R_Leg01]
439 761.455627 -0.001907 -0.000358 122.905197 -15.185133 30.986725 761.455688
440 761.455627 -0.001907 -0.000358 122.904678 -15.186997 30.978542 761.455688
441 761.455627 -0.001907 -0.000358 122.904160 -15.188864 30.970364 761.455688
[R_Leg02]
439 1441.140625 0.000000 -0.000238 -0.620188 -0.088281 -127.648407 1441.140625
440 1441.140625 0.000000 -0.000238 -0.620590 -0.088464 -127.639816 1441.140625
441 1441.140625 0.000000 -0.000238 -0.620992 -0.088647 -127.631195 1441.140625
[R_Leg03]
439 1686.963989 0.000954 0.001431 0.063589 -0.032638 127.461273 1686.963989
440 1686.963989 0.000954 0.001431 0.063646 -0.032666 127.473694 1686.963989
441 1686.963989 0.000954 0.001431 0.063702 -0.032693 127.486115 1686.963989
[R_Foot]
439 3041.560059 -30.531288 -11.204481 -0.445422 -23.007229 59.689911 3041.734131
440 3041.560059 -30.531288 -11.204481 -0.445904 -23.007719 59.681400 3041.734131
441 3041.560059 -30.531288 -11.204481 -0.446385 -23.008200 59.672878 3041.734131
[planeAlignerRight]
439 -0.635147 -812.270569 -0.364304 0.000000 -89.960434 -90.005180 812.270874
440 -0.635147 -812.270569 -0.364304 0.000000 -89.960434 -90.005180 812.270874
441 -0.635147 -812.270569 -0.364304 0.000000 -89.960434 -90.005180 812.270874
[R_Toe1_01]
439 -188.383347 -224.864899 21.052242 76.754852 -0.185011 -174.348236 294.101532
440 -188.383347 -224.864899 21.052242 76.754982 -0.187630 -174.329742 294.101532
441 -188.383347 -224.864899 21.052242 76.755081 -0.190248 -174.311249 294.101532
[R_Toe2_01]
439 200.637817 -220.002121 -148.787384 -91.335098 33.664806 -57.994678 332.857574
440 200.637817 -220.002121 -148.787384 -91.339912 33.655842 -58.008354 332.857574
441 200.637817 -220.002121 -148.787384 -91.344704 33.646866 -58.022015 332.857574
[R_Toe3_01]
439 188.606735 -220.092957 191.126343 -73.386940 -8.449061 -72.276474 347.192566
440 188.606735 -220.092957 191.126343 -73.385086 -8.449141 -72.293457 347.192566
441 188.606735 -220.092957 191.126343 -73.383224 -8.449215 -72.310432 347.192566
[planeLockWeightRight]
439 -0.000477 0.000000 0.000000 -0.011823 -0.004379 -0.000027 0.000477
440 -0.000477 0.000000 0.000000 -0.011823 -0.004379 -0.000027 0.000477
441 -0.000477 0.000000 0.000000 -0.011823 -0.004379 -0.000027 0.000477
[R_Toe1_02]
439 413.762085 0.000477 -0.000119 0.001396 -24.390282 0.001396 413.762085
440 413.762085 0.000477 -0.000119 0.001396 -24.392572 0.001396 413.762085
441 413.762085 0.000477 -0.000119 0.001396 -24.394871 0.001396 413.762085
[R_Toe1_03]
439 464.317810 0.000000 0.001088 0.007175 71.170876 0.007175 464.317810
440 464.317810 0.000000 0.001088 0.007168 71.153130 0.007168 464.317810
441 464.317810 0.000000 0.001088 0.007161 71.135399 0.007161 464.317810
[R_Toe2_02]
439 342.234741 -0.000954 0.000238 0.001196 -67.728745 0.001196 342.234741
440 342.234741 -0.000954 0.000238 0.001196 -67.723976 0.001196 342.234741
441 342.234741 -0.000954 0.000238 0.001196 -67.719193 0.001196 342.234741
[R_Toe2_03]
439 420.210846 0.000715 -0.000268 0.008755 74.591789 0.008755 420.210846
440 420.210846 0.000715 -0.000268 0.008752 74.586647 0.008752 420.210846
441 420.210846 0.000715 -0.000268 0.008749 74.581520 0.008749 420.210846
[R_Toe3_02]
439 329.270355 -0.000477 -0.000954 0.001183 -75.748955 0.001183 329.270355
440 329.270355 -0.000477 -0.000954 0.001183 -75.744423 0.001183 329.270355
441 329.270355 -0.000477 -0.000954 0.001183 -75.739830 0.001183 329.270355
[R_Toe3_03]
439 439.137939 0.000238 0.001431 -0.020642 86.513672 -0.017144 439.137939
440 439.137939 0.000238 0.001431 -0.020437 86.475243 -0.016939 439.137939
441 439.137939 0.000238 0.001431 -0.020236 86.436852 -0.016737 439.137939
[Rear_Leg02]
439 1162.777710 -0.029802 0.005960 1.148198 -5.929090 -123.253029 1162.777710
440 1162.777710 -0.029802 0.005960 1.148683 -5.928855 -123.258141 1162.777710
441 1162.777710 -0.029802 0.005960 1.149167 -5.928620 -123.263237 1162.777710
[Rear_Leg03]
439 607.192505 -0.013351 -0.073195 0.006475 -0.002112 64.338379 607.192505
440 607.192505 -0.013351 -0.073195 0.006474 -0.002112 64.340302 607.192505
441 607.192505 -0.013351 -0.073195 0.006474 -0.002112 64.342216 607.192505
[Rear_Leg04]
439 995.874512 -0.020504 -0.011921 -0.040515 -0.015166 58.227772 995.874573
440 995.874512 -0.020504 -0.011921 -0.040515 -0.015167 58.224995 995.874573
441 995.874512 -0.020504 -0.011921 -0.040515 -0.015168 58.222214 995.874573
[Rear_Foot]
439 3096.176270 -0.067472 -0.041425 -136.317703 82.748123 56.405064 3096.176270
440 3096.176270 -0.067472 -0.041425 -136.319031 82.748619 56.403461 3096.176270
441 3096.176270 -0.067472 -0.041425 -136.320328 82.749092 56.401917 3096.176270
[planeAlignerCenter]
439 0.350077 0.966311 -838.790894 0.000009 0.000003 -179.999985 838.791565
440 0.350077 0.966311 -838.790894 0.000009 0.000003 -179.999985 838.791565
441 0.350077 0.966311 -838.790894 0.000009 0.000003 -179.999985 838.791565
[Rear_Toe1_01]
439 0.653352 83.966492 -371.173737 0.288443 41.545506 90.409134 380.553192
440 0.653352 83.966492 -371.173737 0.288431 41.548870 90.409149 380.553192
441 0.653352 83.966492 -371.173737 0.288423 41.552242 90.409172 380.553192
[Rear_Toe2_01]
439 178.200760 -294.826019 -362.060547 -7.226540 34.164616 -66.254333 499.765686
440 178.200760 -294.826019 -362.060547 -7.226707 34.163315 -66.254265 499.765686
441 178.200760 -294.826019 -362.060547 -7.226865 34.162003 -66.254166 499.765686
[Rear_Toe3_01]
439 -153.359680 -308.780914 -362.060852 3.299269 33.283382 -112.561249 499.952881
440 -153.359680 -308.780914 -362.060852 3.299325 33.282017 -112.561378 499.952881
441 -153.359680 -308.780914 -362.060852 3.299383 33.280663 -112.561516 499.952881
[planeLockWeightCenter]
439 -0.000062 0.000238 0.000000 -0.011814 -0.004373 -0.000015 0.000246
440 -0.000062 0.000238 0.000000 -0.011814 -0.004373 -0.000015 0.000246
441 -0.000062 0.000238 0.000000 -0.011814 -0.004373 -0.000015 0.000246
[Rear_Toe1_02]
439 379.707825 0.194073 0.000477 -0.000246 -31.737741 0.006937 379.707855
440 379.707825 0.194073 0.000477 -0.000246 -31.738014 0.006937 379.707855
441 379.707825 0.194073 0.000477 -0.000246 -31.738274 0.006937 379.707855
[Rear_Toe1_03]
439 500.129700 0.165701 0.000119 -0.000036 52.551624 0.007348 500.129761
440 500.129700 0.165701 0.000119 -0.000037 52.545761 0.007348 500.129761
441 500.129700 0.165701 0.000119 -0.000037 52.539886 0.007347 500.129761
[Rear_Toe2_02]
439 340.494507 0.000238 -0.000954 0.001192 -70.111847 0.001192 340.494507
440 340.494507 0.000238 -0.000954 0.001192 -70.111984 0.001192 340.494507
441 340.494507 0.000238 -0.000954 0.001192 -70.112137 0.001192 340.494507
[Rear_Toe2_03]
439 433.103577 0.000000 0.000238 0.006847 70.262375 0.006847 433.103546
440 433.103577 0.000000 0.000238 0.006846 70.258247 0.006846 433.103546
441 433.103577 0.000000 0.000238 0.006845 70.254112 0.006845 433.103546
[Rear_Toe3_02]
439 340.494141 -0.000358 -0.000477 0.008411 -67.589813 -0.009583 340.494171
440 340.494141 -0.000358 -0.000477 0.008410 -67.586952 -0.009582 340.494171
441 340.494141 -0.000358 -0.000477 0.008409 -67.584068 -0.009581 340.494171
[Rear_Toe3_03]
439 433.103577 0.001431 -0.000238 -0.001027 66.418762 -0.004599 433.103546
440 433.103577 0.001431 -0.000238 -0.001026 66.414551 -0.004598 433.103546
441 433.103577 0.001431 -0.000238 -0.001026 66.410347 -0.004598 433.103546
[Back_Bone]
439 1312.175781 -701.934692 0.000954 2.759979 -1.424549 -85.680115 1488.125488
440 1312.175781 -701.934692 0.000954 2.759799 -1.424356 -85.680092 1488.125488
441 1312.175781 -701.934692 0.000954 2.759619 -1.424162 -85.680077 1488.125488
[Head]
439 1406.159424 809.709290 0.001431 -1.605218 2.654769 7.767752 1622.625488
440 1406.159424 809.709290 0.001431 -1.605100 2.654533 7.767757 1622.625488
441 1406.159424 809.709290 0.001431 -1.604983 2.654298 7.767765 1622.625488
[Motor_Bone]
439 1158.364380 -417.834747 0.000477 3.505517 -1.308243 -116.233070 1231.419434
440 1158.364380 -417.834747 0.000477 3.516309 -1.308847 -116.261650 1231.419434
441 1158.364380 -417.834747 0.000477 3.517737 -1.308870 -116.265137 1231.419434
[Ping_Mechanism]
439 1234.269775 -442.003998 -0.522236 0.000103 -0.000053 82.120995 1311.026123
440 1234.301758 -442.016235 -0.452049 0.000103 -0.000053 82.120995 1311.060425
441 1234.333862 -442.028534 -0.381857 0.000103 -0.000053 82.120995 1311.094727
[BN_LookIK]
439 193.241119 1380.371704 -0.002861 0.000000 89.965736 -31.038179 1393.832153
440 193.241119 1380.371704 -0.002861 0.000000 89.965736 -31.038179 1393.832153
441 193.241119 1380.371704 -0.002861 0.000000 89.965736 -31.038179 1393.832153
[bottomMouth]
439 -435.092926 615.759399 -0.000954 -0.000022 0.000016 73.527184 753.966492
440 -435.092926 615.759399 -0.000954 -0.000022 0.000016 73.527184 753.966492
441 -435.092926 615.759399 -0.000954 -0.000022 0.000016 73.527184 753.966492
[L_Mouth01]
439 554.440979 7.658243 838.222046 150.204178 23.759130 109.605339 1005.027161
440 554.440979 7.658243 838.222046 150.204178 23.759130 109.605339 1005.027161
441 554.440979 7.658243 838.222046 150.204178 23.759130 109.605339 1005.027161
[L_mouthFront]
439 551.629089 934.514771 339.150421 0.000081 2.804060 79.119301 1136.941284
440 551.629089 934.514771 339.150421 0.000081 2.804060 79.119301 1136.941284
441 551.629089 934.514771 339.150421 0.000081 2.804060 79.119301 1136.941284
[mouthGun]
439 55.332661 1627.420898 0.000000 0.000023 0.000009 -11.038128 1628.361328
440 55.332661 1627.420898 0.000000 0.000023 0.000009 -11.038128 1628.361328
441 55.332661 1627.420898 0.000000 0.000023 0.000009 -11.038128 1628.361328
[R_Mouth01]
439 554.442383 7.659197 -838.223938 29.795891 -23.759109 109.605331 1005.029541
440 554.442383 7.659197 -838.223938 29.795891 -23.759109 109.605331 1005.029541
441 554.442383 7.659197 -838.223938 29.795891 -23.759109 109.605331 1005.029541
[R_mouthFront]
439 551.629089 934.514282 -339.151367 0.000029 -2.803930 79.119133 1136.941162
440 551.629089 934.514282 -339.151367 0.000029 -2.803930 79.119133 1136.941162
441 551.629089 934.514282 -339.151367 0.000029 -2.803930 79.119133 1136.941162
[TopMouth]
439 461.269867 -56.106091 -0.008583 -0.000059 -0.000268 92.025169 464.669525
440 461.269867 -56.106091 -0.008583 -0.000059 -0.000268 92.025169 464.669525
441 461.269867 -56.106091 -0.008583 -0.000059 -0.000268 92.025169 464.669525
[weapon_bone]
439 -987.239868 1448.372803 0.001431 0.000000 89.965736 -31.038221 1752.833740
440 -987.239868 1448.372803 0.001431 0.000000 89.965736 -31.038221 1752.833740
441 -987.239868 1448.372803 0.001431 0.000000 89.965736 -31.038221 1752.833740
